<svg xmlns="http://www.w3.org/2000/svg" viewBox="0 0 50 50" width="500" height="500"><path fill="#fff" d="M20 9v5H10v5H5v5H1.125a1.002 1.002 0 0 0-.969.813S0 25.668 0 26.75c0 .688.07 1.434.188 2.188-.06.015-.137.05-.188.062h.188a15.51 15.51 0 0 0 2.062 5.563c.004.007-.004.023 0 .03.008.02.02.044.031.063.051.239.184.45.375.594.02.012.043.023.063.031.308.446.633.89 1 1.313C6.395 39.68 10.739 42 17 42c10.223 0 18.867-4.355 23.75-13h9.094c-1.086-.273-3.418-.64-3.032-2.063-1.292 1.497-3.753 1.684-5.656 1.344.364-.687.715-1.386 1.032-2.125 2.89-.074 4.964-1.004 6.124-2.125 1.27-1.226 1.657-2.593 1.657-2.593a1 1 0 0 0-.344-1.032s-2.527-1.843-6.313-1.218c-1.078-3.536-3.874-5.25-3.874-5.25a1.006 1.006 0 0 0-.688-.126.987.987 0 0 0-.438.22s-.667.57-1.218 1.593c-.551 1.023-1.059 2.582-.875 4.594.086.941.383 1.836.812 2.687-.242.149-.383.274-.781.438-.828.343-2.035.656-3.75.656H32v-5h-5V9Zm2 2h3v3h-3Zm-10 5h3v3h-3Zm5 0h3v3h-3Zm5 0h3v3h-3Zm17.094.219c.742.55 2.086 1.703 2.562 4.218a1.004 1.004 0 0 0 1.25.781c2.551-.698 3.93-.124 4.688.313-.145.317-.121.512-.688 1.063-.91.879-2.453 1.765-5.343 1.656a1.007 1.007 0 0 0-.97.625 26.758 26.758 0 0 1-1.343 2.813 2.131 2.131 0 0 1-.375-.282c-1.34 1.942-9.113 1.2-9.656-.312-1.676 1.968-6.883 1.968-8.563 0-.543 1.511-8.347 2.254-9.687.312-1.2 1.125-5.934 1.817-7.906-.468.187.687-.297 1.132-.938 1.437A11.46 11.46 0 0 1 2 26.75c0-.43.031-.469.063-.75H32.5c1.969 0 3.445-.375 4.5-.813 1.055-.437 1.805-.968 1.906-1.03a.994.994 0 0 0 .453-.68 1.008 1.008 0 0 0-.203-.79c-.554-.722-.843-1.628-.937-2.656-.145-1.613.234-2.742.625-3.468.133-.247.14-.196.25-.344ZM7 21h3v3H7Zm5 0h3v3h-3Zm5 0h3v3h-3Zm5 0h3v3h-3Zm5 0h3v3h-3ZM2.25 29H38.5C33.91 36.414 26.29 40 17 40c-5.469 0-9.016-1.855-11.344-4.313 4.438.211 7.875-.968 7.875-.968.551-.07.946-.574.875-1.125a1.01 1.01 0 0 0-1.281-.844 1.116 1.116 0 0 0-.25.063S8.785 34.206 4 33.53A13.972 13.972 0 0 1 2.25 29ZM16 31c-.55 0-1 .45-1 1s.45 1 1 1 1-.45 1-1a.913.913 0 0 0-.063-.375.449.449 0 0 1-.375.219c-.226 0-.406-.211-.406-.438 0-.152.098-.273.219-.343A1.08 1.08 0 0 0 16 31Z"/></svg>