<svg xmlns="http://www.w3.org/2000/svg" viewBox="0 0 48 48" width="480" height="480" baseProfile="basic"><path fill="#fff" d="M24.5 32.88s-.01-.04-.02-.12c.02.08.02.12.02.12zm2.875-24.255S27 7.25 27.5 6.125s.5-1.875-.5-3c2-.125 2.75 1.25 2.75 1.25l.025.159c.118.766-.278 1.494-.946 1.888-.61.359-1.266 1.015-1.454 2.203z"/><path fill="#fff" d="M41.63 36.24c.02-.21.34-3.04-.38-4.36-1.5 4.24-3 8.12-7.37 10.87.62-1.25 1.62-3.25 2.62-6.25-3 4-9 8-13.5 8.25 3.04-1.68 4.75-3.84 5.5-5.25 0 0-1.75.5-3.88.75 2.88-1.75 4.88-4.87 3.88-9.75-2 6.25-4.75 8.25-8.38 8.62-3.62.38-6.87-1.5-6.87-1.5l1.25-.12s-3.25-2.5-2.12-5.75c.05-.16.11-.31.18-.45.82-1.82 3.61-.9 3.32 1.07v.01s.87 2.37 3.24 1.74c.76-1.24 1.26-2.5 1.26-2.5l.37 1.63s1.75-.75 1.75-2.13c1.5.57 1.88 1.28 1.97 1.59-.26-1.4-2.52-11.03-14.49-10.89l-2.09 1.94c-.14.13-.36.02-.34-.16l.16-1.6.14-.14c-.04.01-.09 0-.13 0l-.01.14-.82.76c-.14.13-.36.02-.34-.16l.1-1.02c-1.74-.74-1.9-2.7-1.9-2.7s-2.17-.61-1.25-3.38c.5-1.5 1.7-1.65 2.21-1.53.65.15 1.32.16 1.94-.09.9-.36 2.05-1.05 2.85-2.38C12 9 14.25 8 19.12 8c6.45 0 9.05 1.98 9.35 2.22-.18-.21-1.27-1.66 1.03-3.84 2.27-2.16 1.86-2.67 1.77-2.75.34.1 4.75 1.6 5.23 7.37.5 6-6.5 7.25-6.5 7.25s9 1.75 9.12-6.75c1.76 1 5.38 4.75 5.88 12.88.49 7.88-3.16 11.65-3.37 11.86z"/><path fill="#fff" d="m7.85 21.86-.14.14.01-.14c.04 0 .09.01.13 0z"/><path fill="#fff" d="m7.85 21.86-.14.14.01-.14c.04 0 .09.01.13 0z"/></svg>