<svg id="visual" viewBox="0 0 900 600" width="900" height="600" xmlns="http://www.w3.org/2000/svg" xmlns:xlink="http://www.w3.org/1999/xlink" version="1.1"><rect x="0" y="0" width="900" height="600" fill="#463366"></rect><path d="M460 600L461 600L461 560L546 560L546 520L576 520L576 480L498 480L498 440L505 440L505 400L422 400L422 360L447 360L447 320L505 320L505 280L508 280L508 240L416 240L416 200L539 200L539 160L428 160L428 120L499 120L499 80L430 80L430 40L500 40L500 0L900 0L900 40L900 40L900 80L900 80L900 120L900 120L900 160L900 160L900 200L900 200L900 240L900 240L900 280L900 280L900 320L900 320L900 360L900 360L900 400L900 400L900 440L900 440L900 480L900 480L900 520L900 520L900 560L900 560L900 600L900 600Z" fill="#8d6ebf"></path><path d="M497 600L563 600L563 560L557 560L557 520L625 520L625 480L498 480L498 440L537 440L537 400L525 400L525 360L596 360L596 320L484 320L484 280L644 280L644 240L638 240L638 200L617 200L617 160L502 160L502 120L495 120L495 80L639 80L639 40L603 40L603 0L900 0L900 40L900 40L900 80L900 80L900 120L900 120L900 160L900 160L900 200L900 200L900 240L900 240L900 280L900 280L900 320L900 320L900 360L900 360L900 400L900 400L900 440L900 440L900 480L900 480L900 520L900 520L900 560L900 560L900 600L900 600Z" fill="#8063af"></path><path d="M642 600L579 600L579 560L624 560L624 520L633 520L633 480L584 480L584 440L595 440L595 400L631 400L631 360L528 360L528 320L599 320L599 280L642 280L642 240L540 240L540 200L560 200L560 160L568 160L568 120L643 120L643 80L588 80L588 40L617 40L617 0L900 0L900 40L900 40L900 80L900 80L900 120L900 120L900 160L900 160L900 200L900 200L900 240L900 240L900 280L900 280L900 320L900 320L900 360L900 360L900 400L900 400L900 440L900 440L900 480L900 480L900 520L900 520L900 560L900 560L900 600L900 600Z" fill="#73589f"></path><path d="M632 600L668 600L668 560L637 560L637 520L714 520L714 480L637 480L637 440L600 440L600 400L674 400L674 360L701 360L701 320L686 320L686 280L668 280L668 240L682 240L682 200L693 200L693 160L634 160L634 120L638 120L638 80L658 80L658 40L712 40L712 0L900 0L900 40L900 40L900 80L900 80L900 120L900 120L900 160L900 160L900 200L900 200L900 240L900 240L900 280L900 280L900 320L900 320L900 360L900 360L900 400L900 400L900 440L900 440L900 480L900 480L900 520L900 520L900 560L900 560L900 600L900 600Z" fill="#664d90"></path><path d="M665 600L680 600L680 560L678 560L678 520L641 520L641 480L688 480L688 440L682 440L682 400L681 400L681 360L652 360L652 320L646 320L646 280L706 280L706 240L670 240L670 200L671 200L671 160L723 160L723 120L661 120L661 80L655 80L655 40L744 40L744 0L900 0L900 40L900 40L900 80L900 80L900 120L900 120L900 160L900 160L900 200L900 200L900 240L900 240L900 280L900 280L900 320L900 320L900 360L900 360L900 400L900 400L900 440L900 440L900 480L900 480L900 520L900 520L900 560L900 560L900 600L900 600Z" fill="#5a4380"></path><path d="M752 600L767 600L767 560L742 560L742 520L728 520L728 480L750 480L750 440L727 440L727 400L777 400L777 360L700 360L700 320L704 320L704 280L698 280L698 240L744 240L744 200L780 200L780 160L726 160L726 120L718 120L718 80L736 80L736 40L763 40L763 0L900 0L900 40L900 40L900 80L900 80L900 120L900 120L900 160L900 160L900 200L900 200L900 240L900 240L900 280L900 280L900 320L900 320L900 360L900 360L900 400L900 400L900 440L900 440L900 480L900 480L900 520L900 520L900 560L900 560L900 600L900 600Z" fill="#4e3971"></path><path d="M761 600L782 600L782 560L788 560L788 520L760 520L760 480L762 480L762 440L771 440L771 400L778 400L778 360L780 360L780 320L822 320L822 280L766 280L766 240L748 240L748 200L815 200L815 160L809 160L809 120L807 120L807 80L751 80L751 40L797 40L797 0L900 0L900 40L900 40L900 80L900 80L900 120L900 120L900 160L900 160L900 200L900 200L900 240L900 240L900 280L900 280L900 320L900 320L900 360L900 360L900 400L900 400L900 440L900 440L900 480L900 480L900 520L900 520L900 560L900 560L900 600L900 600Z" fill="#422f62"></path><path d="M803 600L806 600L806 560L804 560L804 520L832 520L832 480L818 480L818 440L817 440L817 400L822 400L822 360L852 360L852 320L814 320L814 280L816 280L816 240L848 240L848 200L816 200L816 160L817 160L817 120L831 120L831 80L831 80L831 40L815 40L815 0L900 0L900 40L900 40L900 80L900 80L900 120L900 120L900 160L900 160L900 200L900 200L900 240L900 240L900 280L900 280L900 320L900 320L900 360L900 360L900 400L900 400L900 440L900 440L900 480L900 480L900 520L900 520L900 560L900 560L900 600L900 600Z" fill="#372554"></path></svg>